# xmcd
# 
# Track frame offsets:
#     150
#     13469
#     31410
#     49800
#     66324
#     82719
#     99328
#     117099
#     135406
#     152209
#     164870
#     183788
# 
# Disc length: 2586
# 
# Revision: 2
# Processed by: cddbd v1.5.2PL0 Copyright (c) Steve Scherf et al.
# Submitted via: fre:ac v1.0.17
# 
DISCID=990a180c
DTITLE=Julie Fowlis - Cuilidh
DYEAR=2007
DGENRE=Celtic
TTITLE0=Hug air a'Bhonaid  Mhoir
TTITLE1=Mo Ghruagach Dhonn
TTITLE2=An t-Aparan Goirid's an t-Aparan Ur: Oran do Sheasaidh Bhaile Raghnaill
TTITLE3='Ille Dhuinn, 'S Toigh Leam Thu
TTITLE4=Puirt-a-beul Set
TTITLE5=Set of Jigs
TTITLE6=M Dhomhnallan Fhein
TTITLE7=Turas san Lochmor
TTITLE8=Oran nan Raiders
TTITLE9=Bodaich Odhar Hoghaigearraidh
TTITLE10=Mo Bheannachd dhan Bhaillidh Ur
TTITLE11=Aoidh, Na Dean Cadal Idir
EXTD=
EXTT0=
EXTT1=
EXTT2=
EXTT3=
EXTT4=
EXTT5=
EXTT6=
EXTT7=
EXTT8=
EXTT9=
EXTT10=
EXTT11=
PLAYORDER=
